<?xml version="1.0" encoding="UTF-8"?>
<svg id="Capa_1" xmlns="http://www.w3.org/2000/svg" version="1.1" viewBox="0 0 31.9 32">
  <!-- Generator: Adobe Illustrator 30.2.1, SVG Export Plug-In . SVG Version: 2.1.1 Build 1)  -->
  <defs>
    <style>
      .st0 {
        fill: #5b6670;
      }
    </style>
  </defs>
  <g id="MPAScensores">
    <g>
      <polygon class="st0" points="6 20.7 4.9 20.1 3.4 21.1 6.1 22.8 8.9 21.1 7.2 20.1 6 20.7"/>
      <polygon class="st0" points="6 18.2 4.5 17.2 2.8 18.2 6 20.2 9.4 18.2 7.7 17.2 6 18.2"/>
      <polygon class="st0" points="6 15.6 3.7 14.2 2 15.2 6 17.6 10 15.2 8.4 14.3 6 15.6"/>
      <polygon class="st0" points="6.1 13 2.9 11.1 1.2 12.2 6 15 10.8 12.2 9.2 11.2 6.1 13"/>
      <polygon class="st0" points=".3 9 6.1 12.3 11.9 9 6.1 5.6 .3 9"/>
      <polygon class="st0" points="17.5 16.6 17.5 16.6 16.3 12 12.6 12 12.6 20.6 14.9 20.6 14.9 14.5 14.9 14.5 16.5 20.6 18.1 20.6 19.7 14.5 19.7 14.5 19.7 20.6 22.1 20.6 22.1 12 18.7 12 17.5 16.6"/>
      <path class="st0" d="M27.2,12.1c-2.3,0-4.2,1.3-4.2,3.9v10.4h2.3v-9.7c0-1.2.6-2.1,1.8-2.1s1.8.7,1.8,1.8-.8,1.8-1.8,1.8-.9-.1-1.1-.2v2.4c.2.1.6.2,1.3.2,2.1,0,4.2-1.4,4.2-4.2s-1.8-4.2-4.3-4.2h0Z"/>
    </g>
  </g>
</svg>