<?xml version="1.0" encoding="UTF-8"?>
<svg id="Capa_1" data-name="Capa 1" xmlns="http://www.w3.org/2000/svg" viewBox="0 0 236.9 47.98">
  <defs>
    <style>
      .cls-1 {
        fill: #c33854;
      }

      .cls-2, .cls-3 {
        isolation: isolate;
      }

      .cls-3 {
        font-family: FrutigerLT-Roman, 'Frutiger LT 55 Roman';
        font-size: 10px;
      }

      .cls-3, .cls-4 {
        fill: #99a0a6;
      }

      .cls-5 {
        fill: #5b6670;
      }

      .cls-6 {
        fill: none;
        stroke: #707070;
      }
    </style>
  </defs>
  <g id="Orbit" class="cls-2">
    <text class="cls-3" transform="translate(3.65 45.47)"><tspan x="0" y="0">Orbit</tspan></text>
  </g>
  <g id="Pan" class="cls-2">
    <text class="cls-3" transform="translate(175.6 44.24)"><tspan x="0" y="0">Pan</tspan></text>
  </g>
  <g id="Zoom" class="cls-2">
    <text class="cls-3" transform="translate(94.5 45.47)"><tspan x="0" y="0">Zoom</tspan></text>
  </g>
  <g id="Grupo_14575" data-name="Grupo 14575">
    <g id="Grupo_14574" data-name="Grupo 14574">
      <path id="Trazado_1291" data-name="Trazado 1291" class="cls-4" d="M10.74,23.5c.38.23.82.35,1.26.36.99,0,1.3-.63,1.29-1.1,0-.8-.73-1.14-1.47-1.14h-.43v-.58h.43c.56,0,1.27-.29,1.27-.96,0-.46-.29-.86-1-.86-.41.01-.8.14-1.14.38l-.2-.56c.44-.29.96-.44,1.49-.44,1.12,0,1.63.67,1.63,1.36-.01.63-.44,1.18-1.05,1.34v.02c.73.11,1.27.73,1.27,1.46,0,.91-.71,1.71-2.07,1.71-.52,0-1.03-.13-1.48-.39l.21-.6Z"/>
      <path id="Trazado_1292" data-name="Trazado 1292" class="cls-4" d="M18.3,19.24c-.19,0-.39,0-.58.04-1.04.14-1.86.98-1.98,2.02h.03c.6-.75,1.69-.87,2.44-.28.44.35.69.9.65,1.46.06,1.05-.75,1.94-1.8,2-.03,0-.06,0-.09,0-1.22,0-2.01-.94-2.01-2.43-.03-.95.31-1.87.96-2.57.5-.47,1.14-.77,1.82-.84.19-.03.37-.04.56-.04v.63ZM16.98,23.89c.66,0,1.1-.55,1.1-1.37.08-.63-.37-1.21-1-1.29-.06,0-.11-.01-.17,0-.47.01-.89.28-1.1.7-.06.1-.09.22-.09.34.02.94.45,1.63,1.25,1.63h0Z"/>
      <path id="Trazado_1293" data-name="Trazado 1293" class="cls-4" d="M23.32,21.48c0,1.93-.72,3-1.98,3-1.11,0-1.87-1.04-1.88-2.92,0-1.91.82-2.96,1.98-2.96s1.88,1.07,1.88,2.88M20.23,21.56c0,1.48.46,2.32,1.15,2.32.79,0,1.16-.92,1.16-2.37s-.36-2.32-1.16-2.32c-.67,0-1.16.82-1.16,2.37"/>
      <path id="Trazado_1294" data-name="Trazado 1294" class="cls-4" d="M25.06,18.38c.62-.02,1.13.47,1.15,1.08,0,.02,0,.04,0,.06,0,.64-.51,1.17-1.15,1.17,0,0-.02,0-.02,0-.61.02-1.13-.46-1.15-1.08,0-.01,0-.03,0-.04-.02-.64.49-1.17,1.13-1.19.01,0,.02,0,.04,0h0ZM25.04,18.79c-.39.02-.7.36-.68.75,0,0,0,.01,0,.02-.01.38.28.7.67.72,0,0,.01,0,.02,0,.39,0,.7-.32.69-.71,0-.01,0-.02,0-.04.03-.38-.25-.71-.63-.74-.02,0-.04,0-.06,0h0Z"/>
      <path id="Trazado_1295" data-name="Trazado 1295" class="cls-4" d="M17.25,36.45c-2.14,0-3.96-2.94-4.88-7.86-.05-.26.12-.5.38-.55s.5.12.55.38c.79,4.24,2.38,7.09,3.95,7.09s3.16-2.85,3.95-7.09c.05-.26.29-.42.55-.38s.42.29.38.55h0c-.92,4.92-2.74,7.86-4.88,7.86"/>
      <path id="Trazado_1296" data-name="Trazado 1296" class="cls-4" d="M23.06,14.97c-.21-.15-.51-.1-.66.11l-.27.38c-.3-1.89-.9-3.72-1.76-5.43-.89-1.61-1.97-2.47-3.12-2.47s-2.22.86-3.12,2.47c-.94,1.86-1.56,3.86-1.85,5.93-.04.26.13.5.39.54.26.04.5-.13.54-.39.76-4.55,2.38-7.61,4.04-7.61s3.18,2.88,3.97,7.2l-.49-.34c-.21-.15-.51-.1-.66.11-.15.21-.1.51.11.66h0l1.36.96h.01c.21.15.51.1.66-.11l.96-1.36c.15-.21.1-.51-.11-.66,0,0,0,0,0,0"/>
      <path id="Trazado_1297" data-name="Trazado 1297" class="cls-4" d="M27.85,18.04c-.25-.08-.51.06-.59.31-.08.25.06.51.31.59,2.63.82,4.2,1.94,4.2,3s-1.52,2.14-4.06,2.96c-3.4.98-6.92,1.45-10.45,1.39-3.54.06-7.06-.41-10.46-1.39-2.54-.82-4.06-1.92-4.06-2.95s1.44-2.08,3.86-2.89l-.2.48c-.1.24.01.52.25.62.24.1.52-.01.62-.25l.65-1.53h0v-.02c.1-.24-.01-.52-.25-.62,0,0,0,0,0,0l-1.53-.65c-.24-.1-.52.01-.62.25-.1.24.01.52.25.62h0l.5.21c-2.88.97-4.47,2.31-4.47,3.78s1.63,2.86,4.72,3.85c3.49,1.01,7.11,1.49,10.74,1.43,3.63.06,7.25-.42,10.74-1.43,3.08-.99,4.72-2.32,4.72-3.85s-1.73-2.92-4.86-3.9"/>
    </g>
  </g>
  <g id="Grupo_14581" data-name="Grupo 14581">
    <g id="Grupo_14580" data-name="Grupo 14580">
      <path id="Trazado_1314" data-name="Trazado 1314" class="cls-4" d="M183.7,35.67c-.21,0-.41-.12-.51-.3l-3.08-5.32c-.25-.44-.1-1,.34-1.26.14-.08.3-.12.46-.12h.52l.02-4.87h-4.82l-.02.53c0,.51-.41.92-.92.92-.16,0-.32-.04-.46-.12l-5.33-3.08c-.28-.16-.38-.52-.21-.8.05-.09.13-.16.21-.21l5.33-3.08c.44-.25,1-.1,1.26.34.08.14.12.3.12.46v.51l4.84.02v-4.78l-.53-.02c-.51,0-.92-.41-.92-.92,0-.16.04-.32.12-.46l3.08-5.32c.11-.18.3-.3.51-.3h0c.21,0,.41.12.51.3l3.08,5.32c.25.44.1,1-.34,1.26-.14.08-.3.12-.46.12h-.51v4.8s4.8,0,4.8,0l.02-.53c0-.51.41-.92.92-.92.16,0,.32.04.46.12l5.44,3.14c.25.14.33.46.19.71-.05.08-.11.15-.19.19l-5.44,3.14c-.44.25-1,.1-1.26-.34-.08-.14-.12-.3-.12-.46v-.52l-4.83-.02v4.85l.53.02c.51,0,.92.41.92.92,0,.16-.04.32-.12.46l-3.07,5.33c-.11.18-.3.3-.51.3M180.91,29.57l2.79,4.89,2.8-4.86-.53-.02c-.51,0-.92-.41-.92-.92v-5.76h5.72c.51,0,.92.41.92.92v.52s0,.01,0,.01l4.88-2.81-4.86-2.8-.02.53c0,.51-.41.92-.92.92h-5.72v-5.69c0-.51.41-.92.92-.92h.51l-2.79-4.88-2.8,4.86.53.03c.51,0,.92.41.92.92v5.68h-5.73c-.51,0-.92-.41-.92-.92v-.51l-4.88,2.79,4.86,2.81.03-.53c0-.51.41-.92.92-.92h5.72v5.76c0,.51-.41.92-.92.92h-.52Z"/>
    </g>
  </g>
  <g id="Grupo_14583" data-name="Grupo 14583">
    <g id="Grupo_14582" data-name="Grupo 14582">
      <path id="Trazado_1315" data-name="Trazado 1315" class="cls-4" d="M117.57,10.54c-4.29-3.46-10.57-2.79-14.04,1.5-3.1,3.84-2.93,9.36.4,13-.38.1-.72.32-.96.62l-5.7,7.05c-.63.8-.5,1.95.29,2.59.79.63,1.93.51,2.57-.27l5.7-7.04c.25-.3.39-.68.41-1.07,4.76,2.78,10.87,1.19,13.66-3.57,2.49-4.26,1.5-9.69-2.33-12.8M111.32,26.58c-4.62,0-8.37-3.75-8.37-8.37s3.75-8.37,8.37-8.37c4.62,0,8.37,3.75,8.37,8.37h0c0,4.62-3.75,8.37-8.37,8.37"/>
      <path id="Trazado_1316" data-name="Trazado 1316" class="cls-4" d="M112.02,12.33h-1.41v5.19h-4.99v1.33h4.99v5.24h1.41v-5.24h4.99v-1.33h-4.99v-5.19Z"/>
    </g>
  </g>
  <g id="Grupo_14585" data-name="Grupo 14585">
    <path id="Trazado_1327" data-name="Trazado 1327" class="cls-5" d="M150.59,16.33v5.7h-9.23v-2.06h.12c1.15,0,2.09-.94,2.09-2.09v-8.23c0-1.15-.94-2.09-2.09-2.09h-.12v-.92c.08,0,.17,0,.25.02.25.02.5.04.74.08.32.05.64.11.95.2.77.19,1.51.49,2.2.87.55.29,1.07.64,1.56,1.04.1.09.2.17.3.26.03.02.06.05.08.08.1.09.21.19.31.29h0c.12.11.23.23.33.35.31.34.6.71.85,1.09.09.13.17.26.25.39.17.27.32.54.45.83.07.14.13.28.19.43s.12.29.17.44.1.3.15.45.08.28.12.42c.05.17.09.34.12.51.03.16.06.32.08.48s.04.32.06.49c0,0,0,.02,0,.03.03.32.05.64.05.97"/>
    <path id="Trazado_1324" data-name="Trazado 1324" class="cls-5" d="M140.4,22.03h-9.23v-5.7c0-.64.06-1.27.19-1.9.02-.11.04-.22.08-.33.02-.1.04-.21.07-.31.03-.12.06-.24.1-.35.06-.19.12-.38.2-.56.04-.11.08-.21.12-.31,0-.02.02-.05.03-.07.04-.11.09-.21.14-.31.04-.08.08-.16.12-.24.02-.05.05-.11.08-.16.04-.09.09-.17.14-.25.02-.05.05-.1.08-.14.06-.09.11-.18.17-.28.02-.04.05-.08.07-.11.05-.08.1-.16.16-.23.03-.05.07-.1.1-.14.06-.09.13-.17.19-.25.03-.04.06-.08.09-.11.05-.07.11-.13.16-.2s.1-.12.16-.18.11-.12.17-.18c.04-.05.09-.1.14-.15.05-.06.11-.11.17-.17s.1-.1.16-.15.11-.11.17-.16.13-.12.2-.17.11-.09.17-.14.1-.08.16-.12.14-.11.21-.16.12-.09.18-.13c.08-.06.16-.11.24-.16.02-.02.04-.03.06-.04.09-.06.19-.12.28-.18.07-.04.14-.08.2-.12s.14-.08.21-.12c.04-.03.09-.05.13-.07.1-.05.2-.1.3-.15.12-.05.23-.1.35-.15.14-.06.28-.11.41-.16h.01c.12-.05.24-.09.36-.12.18-.07.37-.12.56-.17.15-.04.3-.07.45-.1,0,0,.01,0,.02,0,.16-.04.31-.07.47-.09.14-.02.28-.04.42-.05s.27-.03.4-.03c.06,0,.12-.01.18-.01v.92h-.12c-1.15,0-2.09.94-2.09,2.09v8.23c0,1.15.94,2.09,2.09,2.09h.12v2.07Z"/>
    <path id="Trazado_1325" data-name="Trazado 1325" class="cls-5" d="M150.59,22.99v6.43c0,5.37-4.35,9.71-9.71,9.71s-9.71-4.35-9.71-9.71h0v-6.43h19.43Z"/>
    <path id="Trazado_1326" data-name="Trazado 1326" class="cls-1" d="M142.61,9.65v8.23c0,.62-.51,1.13-1.13,1.13h-1.2c-.62,0-1.13-.51-1.13-1.13v-8.23c0-.62.5-1.13,1.13-1.13h1.2c.62,0,1.13.5,1.13,1.13"/>
  </g>
  <g id="Grupo_14589" data-name="Grupo 14589">
    <g id="Grupo_14586" data-name="Grupo 14586">
      <path id="Trazado_1317" data-name="Trazado 1317" class="cls-5" d="M66.55,16.56v5.7h-9.23v-2.06h.12c1.15,0,2.09-.94,2.09-2.09v-8.23c0-1.15-.94-2.09-2.09-2.09h-.12v-.92c.08,0,.17,0,.25.02.25.02.5.04.74.08.32.05.64.11.95.2.77.19,1.51.49,2.2.87.55.29,1.07.64,1.56,1.04.1.09.2.17.3.26.03.02.06.05.08.08.1.09.21.19.31.29h0c.12.11.23.23.33.35.31.34.6.71.85,1.09.09.13.17.26.25.39.17.27.32.54.45.83.07.14.13.28.19.43s.12.29.17.44.1.3.15.45.08.28.12.42c.05.17.09.34.12.51.03.16.06.32.08.48s.04.32.06.49c0,0,0,.02,0,.03.03.32.05.64.05.97"/>
      <path id="Trazado_1318" data-name="Trazado 1318" class="cls-1" d="M56.36,22.26h-9.23v-5.7c0-.64.06-1.27.19-1.9.02-.11.04-.22.08-.33.02-.1.04-.21.07-.31.03-.12.06-.24.1-.35.06-.19.12-.38.2-.56.04-.11.08-.21.12-.31,0-.02.02-.05.03-.07.04-.11.09-.21.14-.31.04-.08.08-.16.12-.24.02-.05.05-.11.08-.16.04-.09.09-.17.14-.25.02-.05.05-.1.08-.14.06-.09.11-.18.17-.28.02-.04.05-.08.07-.11.05-.08.1-.16.16-.23.03-.05.07-.1.1-.14.06-.09.13-.17.19-.25.03-.04.06-.08.09-.11.05-.07.11-.13.16-.2s.1-.12.16-.18.11-.12.17-.18c.04-.05.09-.1.14-.15.05-.06.11-.11.17-.17s.1-.1.16-.15.11-.11.17-.16.13-.12.2-.17.11-.09.17-.14.1-.08.16-.12.14-.11.21-.16.12-.09.18-.13c.08-.06.16-.11.24-.16.02-.02.04-.03.06-.04.09-.06.19-.12.28-.18.07-.04.14-.08.2-.12s.14-.08.21-.12c.04-.03.09-.05.13-.07.1-.05.2-.1.3-.15.12-.05.23-.1.35-.15.14-.06.28-.11.41-.16h.01c.12-.05.24-.09.36-.12.18-.07.37-.12.56-.17.15-.04.3-.07.45-.1,0,0,.01,0,.02,0,.16-.04.31-.07.47-.09.14-.02.28-.04.42-.05s.27-.03.4-.03c.06,0,.12-.01.18-.01v.92h-.12c-1.15,0-2.09.94-2.09,2.09v8.23c0,1.15.94,2.09,2.09,2.09h.12v2.07Z"/>
      <path id="Trazado_1319" data-name="Trazado 1319" class="cls-5" d="M66.55,23.22v6.43c0,5.37-4.35,9.71-9.71,9.71s-9.71-4.35-9.71-9.71h0v-6.43h19.43Z"/>
      <path id="Trazado_1323" data-name="Trazado 1323" class="cls-5" d="M58.57,9.88v8.23c0,.62-.51,1.13-1.13,1.13h-1.2c-.62,0-1.13-.51-1.13-1.13v-8.23c0-.62.5-1.13,1.13-1.13h1.2c.62,0,1.13.5,1.13,1.13"/>
    </g>
    <g id="Grupo_14587" data-name="Grupo 14587">
      <g id="Polígono_1" data-name="Polígono 1">
        <path class="cls-1" d="M41.44,23.11c0,.18.05.62.52.88l.47.26s.08.05.12.07l.41.25c.45.28.86.11,1.01.02.15-.09.51-.34.51-.87,0,0,0-.02,0-.03v-.52s-.01-.09-.01-.14v-.52s.01-.02.01-.03c0-.53-.36-.78-.51-.87-.15-.09-.56-.26-1.01.02l-.41.25s-.08.05-.12.07l-.47.26c-.47.26-.52.7-.52.88"/>
      </g>
      <g id="Polígono_2" data-name="Polígono 2">
        <path class="cls-1" d="M72.24,23.11c0-.18-.05-.62-.52-.88l-.47-.26s-.08-.05-.12-.07l-.41-.25c-.45-.28-.86-.11-1.01-.02-.15.09-.51.34-.51.87,0,0,0,.02,0,.03v.52s.01.09.01.14v.52s-.01.02-.01.03c0,.53.36.78.51.87.15.09.56.26,1.01-.02l.41-.25s.08-.05.12-.07l.47-.26c.47-.26.52-.7.52-.88"/>
      </g>
      <g id="Polígono_5" data-name="Polígono 5">
        <path class="cls-1" d="M56.84,1.31c-.18,0-.62.05-.88.52l-.26.47s-.05.08-.07.12l-.25.41c-.28.45-.11.86-.02,1.01.09.15.34.51.87.51,0,0,.02,0,.03,0h.52s.09-.01.14-.01h.52s.02.01.03.01c.53,0,.78-.36.87-.51.09-.15.26-.56-.02-1.01l-.25-.41s-.05-.08-.07-.12l-.26-.47c-.26-.47-.7-.52-.88-.52"/>
      </g>
      <g id="Polígono_6" data-name="Polígono 6">
        <path class="cls-1" d="M56.84,44.46c.18,0,.62-.05.88-.52l.26-.47s.05-.08.07-.12l.25-.41c.28-.45.11-.86.02-1.01-.09-.15-.34-.51-.87-.51,0,0-.02,0-.03,0h-.52s-.09.01-.14.01h-.52s-.02-.01-.03-.01c-.53,0-.78.36-.87.51-.09.15-.26.56.02,1.01l.25.41s.05.08.07.12l.26.47c.26.47.7.52.88.52"/>
      </g>
    </g>
  </g>
  <g id="Grupo_14590" data-name="Grupo 14590">
    <g id="Grupo_14584" data-name="Grupo 14584">
      <path id="Trazado_1329" data-name="Trazado 1329" class="cls-1" d="M230.22,16.03v5.7h-9.23v-2.06h.12c1.15,0,2.09-.94,2.09-2.09v-8.23c0-1.15-.94-2.09-2.09-2.09h-.12v-.92c.08,0,.17,0,.25.02.25.02.5.04.74.08.32.05.64.11.95.2.77.19,1.51.49,2.2.87.55.29,1.07.64,1.56,1.04.1.09.2.17.3.26.03.02.06.05.08.08.1.09.21.19.31.29h0c.12.11.23.23.33.35.31.34.6.71.85,1.09.09.13.17.26.25.39.17.27.32.54.45.83.07.14.13.28.19.43s.12.29.17.44.1.3.15.45.08.28.12.42c.05.17.09.34.12.51.03.16.06.32.08.48s.04.32.06.49c0,0,0,.02,0,.03.03.32.05.64.05.97"/>
      <path id="Trazado_1330" data-name="Trazado 1330" class="cls-5" d="M220.03,21.73h-9.23v-5.7c0-.64.06-1.27.19-1.9.02-.11.04-.22.08-.33.02-.1.04-.21.07-.31.03-.12.06-.24.1-.35.06-.19.12-.38.2-.56.04-.11.08-.21.12-.31,0-.02.02-.05.03-.07.04-.11.09-.21.14-.31.04-.08.08-.16.12-.24.02-.05.05-.11.08-.16.04-.09.09-.17.14-.25.02-.05.05-.1.08-.14.06-.09.11-.18.17-.28.02-.04.05-.08.07-.11.05-.08.1-.16.16-.23.03-.05.07-.1.1-.14.06-.09.13-.17.19-.25.03-.04.06-.08.09-.11.05-.07.11-.13.16-.2s.1-.12.16-.18.11-.12.17-.18c.04-.05.09-.1.14-.15.05-.06.11-.11.17-.17s.1-.1.16-.15.11-.11.17-.16.13-.12.2-.17.11-.09.17-.14.1-.08.16-.12.14-.11.21-.16.12-.09.18-.13c.08-.06.16-.11.24-.16.02-.02.04-.03.06-.04.09-.06.19-.12.28-.18.07-.04.14-.08.2-.12s.14-.08.21-.12c.04-.03.09-.05.13-.07.1-.05.2-.1.3-.15.12-.05.23-.1.35-.15.14-.06.28-.11.41-.16h.01c.12-.05.24-.09.36-.12.18-.07.37-.12.56-.17.15-.04.3-.07.45-.1,0,0,.01,0,.02,0,.16-.04.31-.07.47-.09.14-.02.28-.04.42-.05s.27-.03.4-.03c.06,0,.12-.01.18-.01v.92h-.12c-1.15,0-2.09.94-2.09,2.09v8.23c0,1.15.94,2.09,2.09,2.09h.12v2.07Z"/>
      <path id="Trazado_1328" data-name="Trazado 1328" class="cls-5" d="M230.22,22.69v6.43c0,5.37-4.35,9.71-9.71,9.71s-9.71-4.35-9.71-9.71h0v-6.43h19.43Z"/>
      <path id="Trazado_1331" data-name="Trazado 1331" class="cls-5" d="M222.24,9.34v8.23c0,.62-.51,1.13-1.13,1.13h-1.2c-.62,0-1.13-.51-1.13-1.13v-8.23c0-.62.5-1.13,1.13-1.13h1.2c.62,0,1.13.5,1.13,1.13"/>
    </g>
    <g id="Grupo_14588" data-name="Grupo 14588">
      <g id="Polígono_1-2" data-name="Polígono 1-2">
        <path class="cls-1" d="M205.11,22.81c0,.18.05.62.52.88l.47.26s.08.05.12.07l.41.25c.45.28.86.11,1.01.02.15-.09.51-.34.51-.87,0,0,0-.02,0-.03v-.52s-.01-.09-.01-.14v-.52s.01-.02.01-.03c0-.53-.36-.78-.51-.87-.15-.09-.56-.26-1.01.02l-.41.25s-.08.05-.12.07l-.47.26c-.47.26-.52.7-.52.88"/>
      </g>
      <g id="Polígono_2-2" data-name="Polígono 2-2">
        <path class="cls-1" d="M235.9,22.81c0-.18-.05-.62-.52-.88l-.47-.26s-.08-.05-.12-.07l-.41-.25c-.45-.28-.86-.11-1.01-.02-.15.09-.51.34-.51.87,0,0,0,.02,0,.03v.52s.01.09.01.14v.52s-.01.02-.01.03c0,.53.36.78.51.87.15.09.56.26,1.01-.02l.41-.25s.08-.05.12-.07l.47-.26c.47-.26.52-.7.52-.88"/>
      </g>
      <g id="Polígono_5-2" data-name="Polígono 5-2">
        <path class="cls-1" d="M220.51,1c-.18,0-.62.05-.88.52l-.26.47s-.05.08-.07.12l-.25.41c-.28.45-.11.86-.02,1.01.09.15.34.51.87.51,0,0,.02,0,.03,0h.52s.09-.01.14-.01h.52s.02.01.03.01c.53,0,.78-.36.87-.51.09-.15.26-.56-.02-1.01l-.25-.41s-.05-.08-.07-.12l-.26-.47c-.26-.47-.7-.52-.88-.52"/>
      </g>
      <g id="Polígono_6-2" data-name="Polígono 6-2">
        <path class="cls-1" d="M220.51,44.15c.18,0,.62-.05.88-.52l.26-.47s.05-.08.07-.12l.25-.41c.28-.45.11-.86.02-1.01-.09-.15-.34-.51-.87-.51,0,0-.02,0-.03,0h-.52s-.09.01-.14.01h-.52s-.02-.01-.03-.01c-.53,0-.78.36-.87.51-.09.15-.26.56.02,1.01l.25.41s.05.08.07.12l.26.47c.26.47.7.52.88.52"/>
      </g>
    </g>
  </g>
  <line id="Línea_941" data-name="Línea 941" class="cls-6" x1="84.87" y1="4.35" x2="84.87" y2="42.94"/>
  <line id="Línea_943" data-name="Línea 943" class="cls-6" x1="160.09" y1="4.35" x2="160.09" y2="42.94"/>
</svg>