<?xml version="1.0" encoding="UTF-8"?>
<svg id="Capa_1" xmlns="http://www.w3.org/2000/svg" version="1.1" viewBox="0 0 226.9 48">
  <!-- Generator: Adobe Illustrator 30.2.1, SVG Export Plug-In . SVG Version: 2.1.1 Build 1)  -->
  <defs>
    <style>
      .st0 {
        stroke: #c10230;
      }

      .st0, .st1 {
        stroke-linecap: round;
        stroke-linejoin: round;
        stroke-width: 1.4px;
      }

      .st0, .st1, .st2 {
        fill: none;
      }

      .st3, .st4 {
        isolation: isolate;
      }

      .st4 {
        font-family: FrutigerLT-Roman, 'Frutiger LT 55 Roman';
        font-size: 10px;
      }

      .st4, .st5 {
        fill: #99a0a6;
      }

      .st1 {
        stroke: #5b6670;
      }

      .st2 {
        stroke: #707070;
      }
    </style>
  </defs>
  <g id="Orbit" class="st3">
    <text class="st4" transform="translate(3.7 45.5)"><tspan x="0" y="0">Orbit</tspan></text>
  </g>
  <g id="Pan" class="st3">
    <text class="st4" transform="translate(162.6 44.2)"><tspan x="0" y="0">Pan</tspan></text>
  </g>
  <g id="Zoom" class="st3">
    <text class="st4" transform="translate(81.5 45.5)"><tspan x="0" y="0">Zoom</tspan></text>
  </g>
  <g id="Grupo_14575">
    <g id="Grupo_14574">
      <path id="Trazado_1291" class="st5" d="M10.8,23.5c.4.2.8.4,1.3.4,1,0,1.3-.6,1.3-1.1,0-.8-.7-1.1-1.5-1.1h-.4v-.6h.4c.6,0,1.3-.3,1.3-1s-.3-.9-1-.9c-.4,0-.8.1-1.1.4l-.2-.6c.4-.3,1-.4,1.5-.4,1.1,0,1.6.7,1.6,1.4,0,.6-.4,1.2-1.1,1.3h0c.7.1,1.3.7,1.3,1.5,0,.9-.7,1.7-2.1,1.7-.5,0-1-.1-1.5-.4l.2-.6Z"/>
      <path id="Trazado_1292" class="st5" d="M18.3,19.2c-.2,0-.4,0-.6,0-1,.1-1.9,1-2,2h0c.6-.8,1.7-.9,2.4-.3.4.4.7.9.7,1.5,0,1-.7,1.9-1.8,2,0,0,0,0,0,0-1.2,0-2-.9-2-2.4,0-.9.3-1.9,1-2.6.5-.5,1.1-.8,1.8-.8.2,0,.4,0,.6,0v.6ZM17,23.9c.7,0,1.1-.6,1.1-1.4,0-.6-.4-1.2-1-1.3,0,0-.1,0-.2,0-.5,0-.9.3-1.1.7,0,.1,0,.2,0,.3,0,.9.4,1.6,1.3,1.6h0Z"/>
      <path id="Trazado_1293" class="st5" d="M23.4,21.5c0,1.9-.7,3-2,3s-1.9-1-1.9-2.9c0-1.9.8-3,2-3s1.9,1.1,1.9,2.9M20.3,21.6c0,1.5.5,2.3,1.2,2.3s1.2-.9,1.2-2.4-.4-2.3-1.2-2.3-1.2.8-1.2,2.4"/>
      <path id="Trazado_1294" class="st5" d="M25.1,18.4c.6,0,1.1.5,1.1,1.1,0,0,0,0,0,0,0,.6-.5,1.2-1.1,1.2,0,0,0,0,0,0-.6,0-1.1-.5-1.1-1.1,0,0,0,0,0,0,0-.6.5-1.2,1.1-1.2,0,0,0,0,0,0h0ZM25.1,18.8c-.4,0-.7.4-.7.7,0,0,0,0,0,0,0,.4.3.7.7.7,0,0,0,0,0,0,.4,0,.7-.3.7-.7,0,0,0,0,0,0,0-.4-.3-.7-.6-.7,0,0,0,0,0,0h0Z"/>
      <path id="Trazado_1295" class="st5" d="M17.3,36.5c-2.1,0-4-2.9-4.9-7.9,0-.3.1-.5.4-.6s.5.1.6.4c.8,4.2,2.4,7.1,3.9,7.1s3.2-2.8,3.9-7.1c0-.3.3-.4.6-.4s.4.3.4.6h0c-.9,4.9-2.7,7.9-4.9,7.9"/>
      <path id="Trazado_1296" class="st5" d="M23.1,15c-.2-.1-.5,0-.7.1l-.3.4c-.3-1.9-.9-3.7-1.8-5.4-.9-1.6-2-2.5-3.1-2.5s-2.2.9-3.1,2.5c-.9,1.9-1.6,3.9-1.9,5.9,0,.3.1.5.4.5.3,0,.5-.1.5-.4.8-4.6,2.4-7.6,4-7.6s3.2,2.9,4,7.2l-.5-.3c-.2-.1-.5,0-.7.1-.1.2,0,.5.1.7h0l1.4,1h0c.2.2.5.1.7-.1l1-1.4c.2-.2,0-.5-.1-.7,0,0,0,0,0,0"/>
      <path id="Trazado_1297" class="st5" d="M27.9,18c-.2,0-.5,0-.6.3,0,.2,0,.5.3.6,2.6.8,4.2,1.9,4.2,3s-1.5,2.1-4.1,3c-3.4,1-6.9,1.4-10.4,1.4-3.5,0-7.1-.4-10.5-1.4-2.5-.8-4.1-1.9-4.1-3s1.4-2.1,3.9-2.9l-.2.5c-.1.2,0,.5.3.6.2.1.5,0,.6-.3l.6-1.5h0c.1-.3,0-.5-.2-.6,0,0,0,0,0,0l-1.5-.6c-.2-.1-.5,0-.6.3-.1.2,0,.5.3.6h0l.5.2c-2.9,1-4.5,2.3-4.5,3.8s1.6,2.9,4.7,3.9c3.5,1,7.1,1.5,10.7,1.4,3.6,0,7.3-.4,10.7-1.4,3.1-1,4.7-2.3,4.7-3.9s-1.7-2.9-4.9-3.9"/>
    </g>
  </g>
  <g id="Grupo_14581">
    <g id="Grupo_14580">
      <path id="Trazado_1314" class="st5" d="M170.7,35.7c-.2,0-.4-.1-.5-.3l-3.1-5.3c-.3-.4-.1-1,.3-1.3.1,0,.3-.1.5-.1h.5v-4.9s-4.8,0-4.8,0v.5c0,.5-.4.9-.9.9-.2,0-.3,0-.5-.1l-5.3-3.1c-.3-.2-.4-.5-.2-.8,0,0,.1-.2.2-.2l5.3-3.1c.4-.3,1-.1,1.3.3,0,.1.1.3.1.5v.5h4.8s0-4.8,0-4.8h-.5c-.5,0-.9-.4-.9-.9,0-.2,0-.3.1-.5l3.1-5.3c.1-.2.3-.3.5-.3h0c.2,0,.4.1.5.3l3.1,5.3c.3.4.1,1-.3,1.3-.1,0-.3.1-.5.1h-.5v4.8s4.8,0,4.8,0v-.5c0-.5.4-.9.9-.9.2,0,.3,0,.5.1l5.4,3.1c.2.1.3.5.2.7,0,0-.1.1-.2.2l-5.4,3.1c-.4.3-1,.1-1.3-.3,0-.1-.1-.3-.1-.5v-.5h-4.8s0,4.8,0,4.8h.5c.5,0,.9.4.9.9,0,.2,0,.3-.1.5l-3.1,5.3c-.1.2-.3.3-.5.3M167.9,29.6l2.8,4.9,2.8-4.9h-.5c-.5,0-.9-.4-.9-.9v-5.8h5.7c.5,0,.9.4.9.9v.5s0,0,0,0l4.9-2.8-4.9-2.8v.5c0,.5-.4.9-.9.9h-5.7v-5.7c0-.5.4-.9.9-.9h.5l-2.8-4.9-2.8,4.9h.5c.5,0,.9.4.9.9v5.7h-5.7c-.5,0-.9-.4-.9-.9v-.5l-4.9,2.8,4.9,2.8v-.5c0-.5.4-.9.9-.9h5.7v5.8c0,.5-.4.9-.9.9h-.5Z"/>
    </g>
  </g>
  <g id="Grupo_14583">
    <g id="Grupo_14582">
      <path id="Trazado_1315" class="st5" d="M104.6,10.5c-4.3-3.5-10.6-2.8-14,1.5-3.1,3.8-2.9,9.4.4,13-.4,0-.7.3-1,.6l-5.7,7c-.6.8-.5,2,.3,2.6.8.6,1.9.5,2.6-.3l5.7-7c.2-.3.4-.7.4-1.1,4.8,2.8,10.9,1.2,13.7-3.6,2.5-4.3,1.5-9.7-2.3-12.8M98.4,26.6c-4.6,0-8.4-3.7-8.4-8.4s3.7-8.4,8.4-8.4c4.6,0,8.4,3.7,8.4,8.4h0c0,4.6-3.7,8.4-8.4,8.4"/>
      <path id="Trazado_1316" class="st5" d="M99.1,12.3h-1.4v5.2h-5v1.3h5v5.2h1.4v-5.2h5v-1.3h-5v-5.2Z"/>
    </g>
  </g>
  <line id="Línea_941" class="st2" x1="74.9" y1="4.3" x2="74.9" y2="42.9"/>
  <line id="Línea_943" class="st2" x1="150.1" y1="4.3" x2="150.1" y2="42.9"/>
  <path class="st1" d="M202.3,41.9c-1.2-4.6-1-5.2-3.7-8.8-2-2.7-3.5-5.7-5.3-8.9-.7-1.2-.3-2.8.9-3.5,1.2-.7,2.8-.3,3.5.9.8,1.4,1.7,2.9,2.5,4.3.5.8,1.7.3,2-.4l-1.9-16c-.1-1.1.6-2.1,1.8-2.3,1.2-.1,2.1.6,2.3,1.9.9,7.6,1.3,11.1,1.6,11.1.2,0,.5-4.7,1-12.1,0-1.3,1-2.1,2.2-2,1.1,0,2,1,1.9,2.2l-.8,11.8c.1-.5.5-2.1,2.2-2.1,1.1,0,2,.9,2,2v1.9c0-1.1.9-2,2-2s2,.9,2,2c.4,4.8.8,8.8-.9,12.3-1.1,2.8-1.4,4.6-2.2,7.7"/>
  <g>
    <g>
      <path class="st0" d="M223.1,8.4h-9.2M223.1,8.4l-3.1-2.1"/>
      <line class="st0" x1="223.1" y1="8.4" x2="220" y2="10.4"/>
    </g>
    <g>
      <path class="st0" d="M187.8,8.4h9.2M187.8,8.4l3.1-2.1"/>
      <line class="st0" x1="187.8" y1="8.4" x2="190.9" y2="10.4"/>
    </g>
  </g>
  <path class="st1" d="M146,41c-2.6-2.9-6.4-6.7-8.3-6.4-5.1.7-6.7-.8-13.6,0-1.3.1-2.5-.8-2.7-2.2-.1-1.3.8-2.5,2.2-2.7,1.3-.1,3.7-.3,5.8-.5,2-.2,2.3-2.5,1.3-3.3-3.7-3.7-7.9-8.4-11.6-12.1-.8-.8-.8-2.1,0-2.9.8-.8,2.1-.8,2.9,0,2.3,2.3,4.5,4.5,6.8,6.8-.8-.8-.8-2.1,0-2.9.8-.8,2.1-.8,2.9,0,.2.2.4.4.7.7-.8-.8-.8-2.1,0-2.9.8-.8,2.1-.8,2.9,0,.5.5.9.9,1.4,1.4-.8-.8-.8-2.1,0-2.9.8-.8,2.1-.8,2.9,0,3.8,3.2,4.9,7.8,6.2,11.5.3.8,1.1,1.9,2,2.8"/>
  <g>
    <line class="st0" x1="114" y1="40.6" x2="114" y2="31.6"/>
    <line class="st0" x1="114" y1="40.6" x2="112" y2="37.6"/>
    <g>
      <line class="st0" x1="114" y1="40.6" x2="116" y2="37.6"/>
      <path class="st0" d="M114,9.4v9M114,9.4l-2,3"/>
      <line class="st0" x1="114" y1="9.4" x2="116" y2="12.4"/>
    </g>
  </g>
  <path class="st1" d="M47.1,42.6c-1.2-4.7-1-5.2-3.8-8.9-2-2.7-3.5-5.8-5.4-9-.7-1.2-.3-2.8,1-3.6,1.2-.7,2.8-.3,3.6,1,.8,1.5,1.7,2.9,2.5,4.4.6.9,2.2.2,2.1-.8v-15.8c0-1.1.9-2.1,2.1-2.1s2.1.9,2.1,2.1v9.6c0-1.1.9-2.1,2.1-2.1s2.1.9,2.1,2.1v1c0-1.1.9-2.1,2.1-2.1s2.1.9,2.1,2.1v1.9c0-1.1.9-2.1,2.1-2.1s2.1.9,2.1,2.1c.4,4.9.8,8.9-1,12.5-1.2,2.9-1.4,4.6-2.3,7.8"/>
  <g>
    <path class="st0" d="M63.1,8.4h-9M63.1,8.4l-3-2"/>
    <line class="st0" x1="63.1" y1="8.4" x2="60.1" y2="10.4"/>
    <path class="st0" d="M34.8,8.4h9M34.8,8.4l3-2"/>
    <line class="st0" x1="34.8" y1="8.4" x2="37.6" y2="10.4"/>
  </g>
</svg>