<?xml version="1.0" encoding="UTF-8"?>
<svg id="Capa_1" data-name="Capa 1" xmlns="http://www.w3.org/2000/svg" viewBox="0 0 639.3 175.81">
  <defs>
    <style>
      .cls-1 {
        fill: #c10230;
      }
    </style>
  </defs>
  <path d="M49.53,77.49c1.38,2.12,2.06,4.86,2.06,8.21,0,2.09-.36,4.05-1.07,5.86-.72,1.82-1.82,3.4-3.3,4.75-1.49,1.35-3.4,2.41-5.74,3.18-2.34.77-5.16,1.16-8.46,1.16H4.87v-9.74h28.15c2.86,0,4.98-.62,6.36-1.86,1.38-1.24,2.06-2.98,2.06-5.24,0-4.46-2.83-6.69-8.5-6.69H15.77v-8.83h16.92c2.86,0,4.99-.54,6.4-1.61,1.4-1.07,2.1-2.77,2.1-5.08,0-2.09-.66-3.77-1.98-5.04-1.32-1.27-3.47-1.9-6.44-1.9H4.95v-9.74h27.82c3.3,0,6.12.37,8.46,1.11,2.34.74,4.26,1.79,5.78,3.14,1.51,1.35,2.63,2.93,3.34,4.75.71,1.82,1.07,3.8,1.07,5.94,0,3.3-.67,5.99-2.02,8.05-1.35,2.06-3.32,3.65-5.9,4.75,2.64,1.1,4.65,2.71,6.03,4.83ZM105.96,51.77c4.26,4.57,6.4,11.59,6.4,21.05s-2.13,16.4-6.4,20.97c-4.27,4.57-10.5,6.85-18.7,6.85h-19.65c-3.08,0-4.62-1.51-4.62-4.54v-46.64c0-3.03,1.54-4.54,4.62-4.54h19.65c8.2,0,14.43,2.28,18.7,6.85ZM102.62,72.74c0-6.38-1.2-10.99-3.59-13.83-2.39-2.83-6.32-4.25-11.76-4.25h-13.46c-.72,0-1.07.33-1.07.99v34.26c0,.66.36.99,1.07.99h13.46c5.39,0,9.3-1.43,11.72-4.29,2.42-2.86,3.63-7.48,3.63-13.87ZM238.09,43.93c-3.74,0-6.59.92-8.54,2.77-1.95,1.84-3.48,4.36-4.58,7.55l-13.54,35.58c-.55,1.54-1.6,2.31-3.14,2.31-.83,0-1.5-.29-2.02-.87-.52-.58-.78-1.33-.78-2.27v-32.94c0-3.63-1.03-6.56-3.1-8.79s-5.16-3.34-9.29-3.34c-3.74,0-6.59.92-8.54,2.77-1.95,1.84-3.48,4.36-4.58,7.55l-17.25,46.4h10.4l16.68-44.91c.27-.71.66-1.29,1.16-1.73.5-.44,1.13-.66,1.9-.66.83,0,1.51.29,2.06.87.55.58.83,1.36.83,2.35v32.86c0,3.69,1.02,6.65,3.05,8.87,2.04,2.23,5.12,3.34,9.25,3.34,3.74,0,6.6-.92,8.59-2.77,1.98-1.84,3.52-4.36,4.62-7.55l13.54-35.58c.27-.71.67-1.29,1.2-1.73.52-.44,1.14-.66,1.86-.66.83,0,1.5.29,2.02.87.52.58.78,1.36.78,2.35v44.09h9.82v-44.58c0-3.63-1.03-6.56-3.1-8.79s-5.16-3.34-9.29-3.34ZM305.09,62.46c3.38,3.61,5.08,9.07,5.08,16.39s-1.69,12.85-5.08,16.43c-3.38,3.58-7.97,5.37-13.75,5.37h-19.32v17.5h-8.75v-42.43c0-6.33,1.35-11.02,4.04-14.08,2.7-3.05,6.69-4.58,11.97-4.58h12.05c5.78,0,10.36,1.8,13.75,5.41ZM301.33,78.85c0-4.73-.87-8.15-2.6-10.24-1.73-2.09-4.5-3.14-8.3-3.14h-8.59c-3.58,0-6.11.83-7.6,2.48-1.49,1.65-2.23,4.38-2.23,8.17v16.02h18.41c3.8,0,6.56-1.03,8.3-3.1s2.6-5.46,2.6-10.2ZM366.22,92.06c-.38.88-1.15,1.32-2.31,1.32s-1.82-.44-2.15-1.32l-14.53-35h-9.25l16.02,38.88c.83,2.04,2.05,3.5,3.67,4.38,1.62.88,3.7,1.32,6.23,1.32s4.53-.43,6.15-1.28c1.62-.85,2.9-2.32,3.84-4.42l16.84-38.88h-9.41l-15.11,35ZM398.58,100.65h8.75v-43.59h-8.75v43.59ZM398.58,50.78h8.83v-10.15h-8.83v10.15ZM427.48,82.98v3.14c0,1.76.51,3.21,1.53,4.33,1.02,1.13,2.74,1.69,5.16,1.69h26.67v8.5h-26.67c-2.75,0-5.08-.36-6.98-1.07-1.9-.71-3.47-1.72-4.71-3.01-1.24-1.29-2.13-2.81-2.68-4.54-.55-1.73-.83-3.65-.83-5.74v-14.86c0-2.04.27-3.93.83-5.7.55-1.76,1.45-3.29,2.68-4.58,1.24-1.29,2.81-2.3,4.71-3.01,1.9-.71,4.22-1.07,6.98-1.07h14.12c5.17,0,8.92,1.17,11.23,3.51,2.31,2.34,3.47,5.63,3.47,9.87,0,4.02-1.13,7.11-3.38,9.29-2.26,2.17-6.06,3.26-11.39,3.26h-20.72ZM427.48,76.13h20.47c2.37,0,4.03-.47,4.99-1.4.96-.94,1.45-2.2,1.45-3.8s-.5-2.97-1.49-3.96c-.99-.99-2.56-1.49-4.71-1.49h-14.04c-2.42,0-4.14.58-5.16,1.73s-1.53,2.59-1.53,4.29v4.62ZM530.09,91.07c-.11.94-.39,1.64-.83,2.11-.44.47-1.16.7-2.15.7-1.87,0-2.97-.8-3.3-2.39l-5.86-26.42c-.66-2.92-1.9-5.12-3.71-6.6s-4.46-2.23-7.93-2.23-6.16.74-8.09,2.23-3.22,3.69-3.88,6.6l-6.19,26.42c-.22.77-.57,1.36-1.03,1.77-.47.41-1.2.62-2.19.62-1.05,0-1.8-.23-2.27-.7-.47-.47-.76-1.17-.87-2.11l-3.88-34.01h-9.49l4.54,34.51c.22,1.49.58,2.85,1.07,4.09s1.2,2.3,2.1,3.18c.91.88,2.06,1.57,3.47,2.06,1.4.5,3.12.74,5.16.74,3.47,0,6.16-.74,8.09-2.23,1.93-1.49,3.25-3.74,3.96-6.77l6.19-26.5c.33-1.43,1.4-2.15,3.22-2.15.83,0,1.53.17,2.1.5.58.33.95.88,1.12,1.65l5.86,26.5c.66,3.03,1.93,5.28,3.8,6.77,1.87,1.49,4.51,2.23,7.92,2.23,3.96,0,6.88-.92,8.75-2.77s3.03-4.28,3.47-7.31l4.87-34.51h-9.49l-4.54,34.01ZM560.47,82.98v3.14c0,1.76.51,3.21,1.53,4.33,1.02,1.13,2.74,1.69,5.16,1.69h26.67v8.5h-26.67c-2.75,0-5.08-.36-6.98-1.07-1.9-.71-3.47-1.72-4.71-3.01-1.24-1.29-2.13-2.81-2.68-4.54-.55-1.73-.83-3.65-.83-5.74v-14.86c0-2.04.27-3.93.83-5.7.55-1.76,1.45-3.29,2.68-4.58,1.24-1.29,2.81-2.3,4.71-3.01,1.9-.71,4.22-1.07,6.98-1.07h14.12c5.17,0,8.92,1.17,11.23,3.51,2.31,2.34,3.47,5.63,3.47,9.87,0,4.02-1.13,7.11-3.38,9.29-2.26,2.17-6.06,3.26-11.39,3.26h-20.72ZM560.47,76.13h20.47c2.37,0,4.03-.47,4.99-1.4.96-.94,1.45-2.2,1.45-3.8s-.5-2.97-1.49-3.96c-.99-.99-2.56-1.49-4.71-1.49h-14.04c-2.42,0-4.14.58-5.16,1.73s-1.53,2.59-1.53,4.29v4.62ZM618.43,57.06c-4.29,0-7.33,1.02-9.12,3.05-1.79,2.04-2.68,5.26-2.68,9.66v30.88h8.75v-29.56c0-3.74,1.87-5.61,5.61-5.61h15.36v-8.42h-17.92Z"/>
  <g id="Grupo_14576" data-name="Grupo 14576">
    <path id="Trazado_1308" data-name="Trazado 1308" class="cls-1" d="M41.73,128.51l-2.66-16.21h2.69l1.39,8.93c.16.98.35,2.57.56,4.78.53-1.15,1.21-2.47,2.03-3.95l5.43-9.75h2.92l-9.28,16.21h-3.07Z"/>
    <path id="Trazado_1309" data-name="Trazado 1309" class="cls-1" d="M53.15,128.51l3.39-16.21h2.76l-3.39,16.21h-2.76ZM57.18,109.27l.66-3.13h2.75l-.66,3.13h-2.75Z"/>
    <path id="Trazado_1310" data-name="Trazado 1310" class="cls-1" d="M72.11,123.01l2.68.27c-.5,1.5-1.42,2.82-2.66,3.8-1.37,1.2-3.15,1.84-4.97,1.8-1.15.01-2.29-.27-3.3-.83-1-.55-1.8-1.39-2.29-2.42-.54-1.13-.81-2.37-.79-3.62,0-1.79.42-3.55,1.23-5.15.69-1.51,1.79-2.8,3.18-3.71,1.26-.8,2.73-1.22,4.23-1.21,1.73-.08,3.41.57,4.63,1.8,1.21,1.34,1.83,3.11,1.73,4.91,0,.82-.07,1.63-.21,2.44h-11.94c-.04.28-.06.57-.06.85-.09,1.25.29,2.48,1.04,3.47.63.77,1.57,1.21,2.56,1.2,1.01-.02,1.98-.35,2.79-.94.96-.67,1.7-1.6,2.14-2.68M64.09,118.99h9.1c0-.29.01-.49.01-.61.08-1.15-.29-2.3-1.04-3.18-.69-.74-1.66-1.14-2.67-1.11-1.19,0-2.33.44-3.23,1.22-1.07.98-1.83,2.26-2.18,3.68"/>
    <path id="Trazado_1311" data-name="Trazado 1311" class="cls-1" d="M80.67,128.51l-1.69-16.21h2.66l.73,7.28.29,4.09c.02.31.05.92.09,1.85.31-1.04.56-1.83.78-2.39.22-.55.56-1.34,1.02-2.37l3.86-8.46h3.01l.54,8.1c.08,1.23.13,2.87.15,4.93.51-1.36,1.34-3.26,2.49-5.68l3.48-7.36h2.76l-7.92,16.21h-2.87l-.61-9.51c-.04-.59-.07-1.74-.09-3.45-.42,1.09-.91,2.26-1.48,3.53l-4.29,9.44h-2.91Z"/>
    <path id="Trazado_1312" data-name="Trazado 1312" class="cls-1" d="M141.02,5.44c-13.39-8.35-33.61-1.42-53.43,15.98l.41.24c15.03-11.78,29.67-16.1,39.56-9.93,14.9,9.29,14.28,39.42.1,72.04l13.59-5.47,1.63,11.01c16.04-37.67,16.06-72.69-1.86-83.87"/>
    <path id="Trazado_1313" data-name="Trazado 1313" class="cls-1" d="M112.15,95.32l7.59,4.35c-.62,1.1-1.25,2.2-1.89,3.3-23.16,39.29-56.37,62.15-74.18,51.04-9.26-5.77-12.5-19.62-10.22-37.09l-.86-.49c-5.01,24.89-1.42,45.34,11.5,53.4,21.49,13.4,60.6-12.54,87.36-57.94.81-1.38,1.6-2.76,2.37-4.14l7.43,4.26-3.98-26.81-25.14,10.11Z"/>
  </g>
</svg>