<?xml version="1.0" encoding="UTF-8"?>
<svg id="Capa_1" xmlns="http://www.w3.org/2000/svg" version="1.1" viewBox="0 0 639.3 175.8">
  <!-- Generator: Adobe Illustrator 30.2.1, SVG Export Plug-In . SVG Version: 2.1.1 Build 1)  -->
  <defs>
    <style>
      .st0 {
        fill: #fff;
      }
    </style>
  </defs>
  <path class="st0" d="M49.5,77.5c1.4,2.1,2.1,4.9,2.1,8.2s-.4,4.1-1.1,5.9c-.7,1.8-1.8,3.4-3.3,4.8-1.5,1.3-3.4,2.4-5.7,3.2-2.3.8-5.2,1.2-8.5,1.2H4.9v-9.7h28.2c2.9,0,5-.6,6.4-1.9s2.1-3,2.1-5.2c0-4.5-2.8-6.7-8.5-6.7H15.8v-8.8h16.9c2.9,0,5-.5,6.4-1.6,1.4-1.1,2.1-2.8,2.1-5.1s-.7-3.8-2-5-3.5-1.9-6.4-1.9H4.9v-9.7h27.8c3.3,0,6.1.4,8.5,1.1s4.3,1.8,5.8,3.1c1.5,1.3,2.6,2.9,3.3,4.8s1.1,3.8,1.1,5.9c0,3.3-.7,6-2,8-1.3,2.1-3.3,3.7-5.9,4.8,2.6,1.1,4.7,2.7,6,4.8ZM106,51.8c4.3,4.6,6.4,11.6,6.4,21s-2.1,16.4-6.4,21c-4.3,4.6-10.5,6.8-18.7,6.8h-19.7c-3.1,0-4.6-1.5-4.6-4.5v-46.6c0-3,1.5-4.5,4.6-4.5h19.7c8.2,0,14.4,2.3,18.7,6.9ZM102.6,72.7c0-6.4-1.2-11-3.6-13.8-2.4-2.8-6.3-4.2-11.8-4.2h-13.5c-.7,0-1.1.3-1.1,1v34.3c0,.7.4,1,1.1,1h13.5c5.4,0,9.3-1.4,11.7-4.3s3.6-7.5,3.6-13.9ZM238.1,43.9c-3.7,0-6.6.9-8.5,2.8-1.9,1.8-3.5,4.4-4.6,7.5l-13.5,35.6c-.6,1.5-1.6,2.3-3.1,2.3s-1.5-.3-2-.9-.8-1.3-.8-2.3v-32.9c0-3.6-1-6.6-3.1-8.8s-5.2-3.3-9.3-3.3-6.6.9-8.5,2.8c-1.9,1.8-3.5,4.4-4.6,7.5l-17.2,46.4h10.4l16.7-44.9c.3-.7.7-1.3,1.2-1.7s1.1-.7,1.9-.7,1.5.3,2.1.9c.6.6.8,1.4.8,2.3v32.9c0,3.7,1,6.7,3.1,8.9,2,2.2,5.1,3.3,9.2,3.3s6.6-.9,8.6-2.8c2-1.8,3.5-4.4,4.6-7.6l13.5-35.6c.3-.7.7-1.3,1.2-1.7.5-.4,1.1-.7,1.9-.7s1.5.3,2,.9c.5.6.8,1.4.8,2.3v44.1h9.8v-44.6c0-3.6-1-6.6-3.1-8.8s-5.2-3.3-9.3-3.3h0ZM305.1,62.5c3.4,3.6,5.1,9.1,5.1,16.4s-1.7,12.8-5.1,16.4c-3.4,3.6-8,5.4-13.8,5.4h-19.3v17.5h-8.8v-42.4c0-6.3,1.4-11,4-14.1,2.7-3,6.7-4.6,12-4.6h12c5.8,0,10.4,1.8,13.8,5.4h0ZM301.3,78.8c0-4.7-.9-8.2-2.6-10.2s-4.5-3.1-8.3-3.1h-8.6c-3.6,0-6.1.8-7.6,2.5-1.5,1.7-2.2,4.4-2.2,8.2v16h18.4c3.8,0,6.6-1,8.3-3.1s2.6-5.5,2.6-10.2h0ZM366.2,92.1c-.4.9-1.1,1.3-2.3,1.3s-1.8-.4-2.1-1.3l-14.5-35h-9.2l16,38.9c.8,2,2,3.5,3.7,4.4,1.6.9,3.7,1.3,6.2,1.3s4.5-.4,6.1-1.3,2.9-2.3,3.8-4.4l16.8-38.9h-9.4l-15.1,35h0ZM398.6,100.7h8.8v-43.6h-8.8v43.6ZM398.6,50.8h8.8v-10.2h-8.8v10.2ZM427.5,83v3.1c0,1.8.5,3.2,1.5,4.3,1,1.1,2.7,1.7,5.2,1.7h26.7v8.5h-26.7c-2.8,0-5.1-.4-7-1.1-1.9-.7-3.5-1.7-4.7-3s-2.1-2.8-2.7-4.5-.8-3.7-.8-5.7v-14.9c0-2,.3-3.9.8-5.7.5-1.8,1.5-3.3,2.7-4.6,1.2-1.3,2.8-2.3,4.7-3s4.2-1.1,7-1.1h14.1c5.2,0,8.9,1.2,11.2,3.5s3.5,5.6,3.5,9.9-1.1,7.1-3.4,9.3c-2.3,2.2-6.1,3.3-11.4,3.3h-20.7ZM427.5,76.1h20.5c2.4,0,4-.5,5-1.4,1-.9,1.5-2.2,1.5-3.8s-.5-3-1.5-4-2.6-1.5-4.7-1.5h-14c-2.4,0-4.1.6-5.2,1.7s-1.5,2.6-1.5,4.3v4.6h0ZM530.1,91.1c-.1.9-.4,1.6-.8,2.1s-1.2.7-2.2.7c-1.9,0-3-.8-3.3-2.4l-5.9-26.4c-.7-2.9-1.9-5.1-3.7-6.6s-4.5-2.2-7.9-2.2-6.2.7-8.1,2.2-3.2,3.7-3.9,6.6l-6.2,26.4c-.2.8-.6,1.4-1,1.8-.5.4-1.2.6-2.2.6s-1.8-.2-2.3-.7c-.5-.5-.8-1.2-.9-2.1l-3.9-34h-9.5l4.5,34.5c.2,1.5.6,2.8,1.1,4.1s1.2,2.3,2.1,3.2c.9.9,2.1,1.6,3.5,2.1,1.4.5,3.1.7,5.2.7,3.5,0,6.2-.7,8.1-2.2,1.9-1.5,3.2-3.7,4-6.8l6.2-26.5c.3-1.4,1.4-2.2,3.2-2.2s1.5.2,2.1.5c.6.3,1,.9,1.1,1.7l5.9,26.5c.7,3,1.9,5.3,3.8,6.8s4.5,2.2,7.9,2.2,6.9-.9,8.8-2.8,3-4.3,3.5-7.3l4.9-34.5h-9.5l-4.5,34h0ZM560.5,83v3.1c0,1.8.5,3.2,1.5,4.3,1,1.1,2.7,1.7,5.2,1.7h26.7v8.5h-26.7c-2.8,0-5.1-.4-7-1.1-1.9-.7-3.5-1.7-4.7-3-1.2-1.3-2.1-2.8-2.7-4.5s-.8-3.7-.8-5.7v-14.9c0-2,.3-3.9.8-5.7.5-1.8,1.5-3.3,2.7-4.6,1.2-1.3,2.8-2.3,4.7-3s4.2-1.1,7-1.1h14.1c5.2,0,8.9,1.2,11.2,3.5s3.5,5.6,3.5,9.9-1.1,7.1-3.4,9.3c-2.3,2.2-6.1,3.3-11.4,3.3h-20.7ZM560.5,76.1h20.5c2.4,0,4-.5,5-1.4,1-.9,1.5-2.2,1.5-3.8s-.5-3-1.5-4-2.6-1.5-4.7-1.5h-14c-2.4,0-4.1.6-5.2,1.7s-1.5,2.6-1.5,4.3v4.6h0ZM618.4,57.1c-4.3,0-7.3,1-9.1,3-1.8,2-2.7,5.3-2.7,9.7v30.9h8.8v-29.6c0-3.7,1.9-5.6,5.6-5.6h15.4v-8.4s-17.9,0-17.9,0Z"/>
  <g id="Grupo_14576">
    <path id="Trazado_1308" class="st0" d="M41.7,128.5l-2.7-16.2h2.7l1.4,8.9c.2,1,.3,2.6.6,4.8.5-1.2,1.2-2.5,2-3.9l5.4-9.8h2.9l-9.3,16.2h-3.1Z"/>
    <path id="Trazado_1309" class="st0" d="M53.2,128.5l3.4-16.2h2.8l-3.4,16.2h-2.8ZM57.2,109.3l.7-3.1h2.8l-.7,3.1h-2.8Z"/>
    <path id="Trazado_1310" class="st0" d="M72.1,123l2.7.3c-.5,1.5-1.4,2.8-2.7,3.8-1.4,1.2-3.2,1.8-5,1.8-1.2,0-2.3-.3-3.3-.8-1-.6-1.8-1.4-2.3-2.4-.5-1.1-.8-2.4-.8-3.6,0-1.8.4-3.6,1.2-5.2.7-1.5,1.8-2.8,3.2-3.7,1.3-.8,2.7-1.2,4.2-1.2,1.7,0,3.4.6,4.6,1.8,1.2,1.3,1.8,3.1,1.7,4.9,0,.8,0,1.6-.2,2.4h-11.9c0,.3,0,.6,0,.8,0,1.2.3,2.5,1,3.5.6.8,1.6,1.2,2.6,1.2,1,0,2-.3,2.8-.9,1-.7,1.7-1.6,2.1-2.7M64.1,119h9.1c0-.3,0-.5,0-.6,0-1.2-.3-2.3-1-3.2-.7-.7-1.7-1.1-2.7-1.1-1.2,0-2.3.4-3.2,1.2-1.1,1-1.8,2.3-2.2,3.7"/>
    <path id="Trazado_1311" class="st0" d="M80.7,128.5l-1.7-16.2h2.7l.7,7.3.3,4.1c0,.3,0,.9,0,1.8.3-1,.6-1.8.8-2.4.2-.6.6-1.3,1-2.4l3.9-8.5h3l.5,8.1c0,1.2.1,2.9.2,4.9.5-1.4,1.3-3.3,2.5-5.7l3.5-7.4h2.8l-7.9,16.2h-2.9l-.6-9.5c0-.6,0-1.7,0-3.4-.4,1.1-.9,2.3-1.5,3.5l-4.3,9.4h-2.9Z"/>
    <path id="Trazado_1312" class="st0" d="M141,5.4c-13.4-8.4-33.6-1.4-53.4,16l.4.2c15-11.8,29.7-16.1,39.6-9.9,14.9,9.3,14.3,39.4,0,72l13.6-5.5,1.6,11c16-37.7,16.1-72.7-1.9-83.9"/>
    <path id="Trazado_1313" class="st0" d="M112.2,95.3l7.6,4.3c-.6,1.1-1.2,2.2-1.9,3.3-23.2,39.3-56.4,62.1-74.2,51-9.3-5.8-12.5-19.6-10.2-37.1l-.9-.5c-5,24.9-1.4,45.3,11.5,53.4,21.5,13.4,60.6-12.5,87.4-57.9.8-1.4,1.6-2.8,2.4-4.1l7.4,4.3-4-26.8-25.1,10.1h0Z"/>
  </g>
</svg>